<svg xmlns="http://www.w3.org/2000/svg" width="491.8" height="117" viewBox="0 0 491.8 117"><path d="M461.1 113.8l.1-.5c-13.1-4-103.7-30.4-226.5-34 0 0-123.5 2.1-212.6 34.5 0 0-2.7-43.9-17.5-64.1 0 0 66.8-42.5 226.8-43.2 0 0 185.6-.1 256.5 39.8 0 0-19.3 30-24.9 66.9" fill="none" stroke="#fff" stroke-width=".276" stroke-miterlimit="10"/><path d="M461.1 113.8l.1-.5c-13.1-4-103.7-30.4-226.5-34 0 0-123.5 2.1-212.6 34.5 0 0-2.7-43.9-17.5-64.1 0 0 66.8-42.5 226.8-43.2 0 0 185.6-.1 256.5 39.8 0 0-19.3 30-24.9 66.9" fill="#181716"/><path d="M461.1 113.8l.1-.5c-13.1-4-103.7-30.4-226.5-34 0 0-123.5 2.1-212.6 34.5 0 0-2.7-43.9-17.5-64.1 0 0 66.8-42.5 226.8-43.2 0 0 185.6-.1 256.5 39.8 0 0-19.3 30-24.9 66.9" fill="none" stroke="#fff" stroke-width=".276" stroke-miterlimit="10"/><path d="M237.7 70.2c-1.8 0-128.7 1.6-208 34.3l-.7.3v-.8c0-.4-1.8-36.9-14.7-49.5l-.5-.5.7-.4c.2-.1 19.5-10.1 55.9-20 33.6-9.1 89-20 162.3-20.3 1.8 0 176 3.9 245.6 36.3l.6.3-.4.5c-.2.3-23.7 30.1-24.3 52.8v.7l-.7-.1c-1.8-.4-4.7-1.3-8.7-2.6-23.7-7.4-86.6-27.3-207.1-31z" fill="none" stroke="#fff" stroke-width="1.103" stroke-miterlimit="10"/><path d="M237.7 68.7c-1.3 0-127.6 1.5-207.4 33.9-.3-6.6-2.8-35.9-14.1-48.3 4.6-2.2 23.2-10.8 54.6-19.3 33.5-9.1 88.7-20 161.9-20.2 1.7 0 173.9 3.8 243.9 35.7-4 5.2-22.7 30.7-23.8 51.7-1.8-.5-4.3-1.3-7.5-2.3-23.8-7.5-86.9-27.5-207.6-31.2z" fill="none" stroke="#fff" stroke-width=".368" stroke-miterlimit="10"/><path d="M97.8 70.2s0-.1 0 0V70h-.6s.1-.1 0-.1l-.1-.4h.2c0-.6.1-1.1.5-1.6.3-.3.5-.9.6-1.7.2-.9.3-1.8.5-2.7.1-1 .3-1.9.3-2.9.1-.9.2-1.7.3-2.2.1 0 .1.1.1.4-.1.3-.1.4-.1.3-.3-.2-.3-.6-.2-1.1h.3c0-.2.1-.7.2-1.5s.2-1.3.2-1.7h.2v-.2c-.4.1-.8.3-1.2.6-.4.3-.8.5-1.2.6v.2l-.8.1v.1c-.8.1-1.4.4-2 .9-.6.5-1.2.7-1.8.7v-.1c-.5 0-.7-.3-.4-.7.3-.5.5-.7.8-.9V56c.3 0 .6-.1.8-.2s.5-.2.7-.1c.1-.3.1-.4.1-.3.3 0 .6-.1.8-.2s.5-.2.8-.2c0-.1.5-.4 1.3-.9.9-.5 1.3-.6 1.2-.4 0 0 .2-.1.5-.4.3-.2.5-.4.6-.4l.4-1h-.1c0-.3 0-.5.2-.8h.1c.1-.7.3-1.6.5-2.8.2-1.2.4-2.2.5-3.1h.1c0-.1 0-.2.1-.2s0-.1-.1-.3c-.5.3-1 .5-1.5.9-.5.3-1 .5-1.6.7v.3c-.7.2-1.1.5-1.4.9-.3.4-.7.6-1.2.6v.2c-.1 0-.1 0-.2.1 0 0-.1 0-.2.1v-.1h-.2v.1c-.6.2-1 .4-1.2.6-.3.2-.6.4-1.1.5v-.1c-.2 0-.3 0-.3.1v.1c-.2 0-.4-.1-.5-.5-.1-.4 0-.7.4-.8v-.1h.4s.2-.2.8-.5 1.1-.7 1.8-1c.7-.4 1.3-.7 2-1 .6-.3 1.1-.5 1.3-.5v-.2s.1-.1.2-.1v-.1h.4v-.3h.8v-.2c.2-.1.9-.4 2-.9s2.2-1.1 3.5-1.6c1.2-.6 2.3-1 3.3-1.4 1-.4 1.5-.6 1.5-.5.6-.1 1.2-.4 1.7-.7.6-.3 1.2-.5 1.9-.6v-.2c.6 0 1.1-.2 1.5-.5v-.1h.3c.1 0 .3 0 .4-.1-.1.1-.1.1-.1.3h.2V37.8c.8-.3 1.5-.5 2-.8.5-.3 1.2-.5 1.9-.7v-.1c1.1-.3 1.7-.2 1.8.2.1.4.1.6-.1.6-.1.1-.2.2-.1.3-.5.2-1.1.5-1.9.9-.8.4-1.3.7-1.5.9 0 .1 0 .2-.1.3h-.4c-.1-.8-.6-.8-1.3-.2-.8.6-2.1 1.1-4 1.5v.1c-.1 0-.3 0-.4.1-.2 0-.3.1-.4.1l-.1.1c-.2 0-.4.1-.6.2s-.3.1-.4.2v.1h-.4c0 .1-.2.3-.7.4-.5.1-.8.2-.9.1 0 .2-.3.3-.7.4v.1c-.4.1-.7.2-1 .4-.3.1-.7.2-1 .3 0 .1 0 .2-.1.2v-.2h-.1c-.1.2-.2.3-.4.4s-.4.1-.5.2v.2c-.3 0-.7.2-1.1.3-.4.2-.7.4-.7.7v.3c0 .2 0 .3.1.3-.3 1.4-.5 2.5-.8 3.3-.2.8-.4 1.9-.6 3.3.1.1.2.1.2.1 0-.1.6-.4 1.6-.8s1.7-.7 1.9-.9v-.1c.3-.1.6-.1.7-.3.1-.1.4-.2.7-.2v-.3c.1 0 .2.1.2.2 0 0 .1 0 .1-.1v-.3c.5-.2.9-.4 1.3-.5.4-.2.8-.3 1.3-.4 0-.2.1-.3.3-.3.1-.1.1-.1.1-.2 1-.3 2-.7 3.1-1.1 1.1-.4 2-.7 2.9-.8v-.2s.1 0 .2.2c.4 0 .7.2.8.6.1.4-.1.7-.6.9l-.1-.1c-.2.2-.5.3-.8.3-.3 0-.6 0-.8.1v.1c-.2.1-.5.2-.8.2-.4 0-.6.1-.6.3-.1 0-.1-.1-.1-.1h-.1v.1c-2.7.8-4.1 1.4-4.2 1.7-.4.1-1 .4-1.9.8-.9.4-1.3.7-1.3.8-.8.1-1.5.4-2.2.8-.7.4-1.4.8-2 1.1v.2h-.2c-.1.3-.2.5-.2.7-.1.2-.1.4-.1.6h-.3c0 .2 0 .9-.2 2s-.3 1.7-.5 1.7c.1 1-.1 2.5-.4 4.5-.4 2-.4 3.3-.1 4h-.3c0 .3-.1.5-.1.7-.1.2-.1.4 0 .5h-.2c0 .6-.1 1-.3 1.3-.6-.2-1 0-1.7.1zm5.7-26.6s.1 0 .2-.1.2-.1.2-.1v-.1c-.1.1-.2.1-.3.1-.1 0-.2.1-.2.1 0 .1.1.1.1.1zm1.4-.9l-.1.1v.3c0-.1 0-.2.1-.4zm1-.1l-.1-.1-.3.2.1.1c.1-.1.2-.2.3-.2zm.2 8.2c.3-.1.7-.3 1.1-.5.4-.2.7-.3 1.1-.4v-.1h.4c-.1-.1-.2-.1-.2-.2v.1c-.2-.1-.6 0-1.3.3-.8.3-1.1.6-1.1.8zm.2-8.6s.1 0 .1-.1c0 0-.2 0-.3.1l.1.1.1-.1zm1.3-.4c.1-.1.4-.2.7-.3l.1.1v-.2c-.2 0-.4.1-.7.2-.3.1-.5.2-.7.2v.2c.3-.1.5-.1.6-.2zm1-.3l.2-.2c.1-.1.2-.2.3-.2 0 0-.3 0-.6.1v.3c0-.1 0-.1.1 0zm.5 7.9c.1 0 .2-.1.4-.2-.2.1-.3.1-.4.2-.1-.1-.3-.1-.4 0v.1c.1 0 .3 0 .4-.1zm1.6-8.9h-.4v.2h-.2v-.1s-.1 0 0 .2h-.2v.1c.3-.1.6-.2.8-.4zm0-.6h.2c-.2-.1-.3-.1-.2 0zm.2.6h.1l.1-.4-.3.3v.2c0-.1 0-.1.1-.1zm1-.4c.1-.1.1-.2.1-.3h-.2v.1c.1.1.1.2.1.2zm.4-.2l.3-.2c-.2 0-.3-.1-.4-.2 0 .2.1.3.1.4zM116.4 67.4c-.4 0-.6-.3-.7-.7 0-.5.1-.8.2-.9l.3-.9h.3c0-.2.1-.3.3-.5.2-.2.3-.4.3-.6-.2.2-.4.3-.4.3l.2-.7h.1c.1-.1.1-.3.1-.4l.1-.1h.1v-.3.1l.3-.9h.2v-.4c.2-.3.4-.8.6-1.4h.1c.1-.2.2-.4.3-.5.1-.1.2-.4.2-.6-.1.1-.2.3-.3.3.1-.2.2-.5.2-.7.2-.1.2-.2.2-.4V58h.1c.1-.1.1-.2.1-.3l-.2.1c.5-1.6.8-3.1.8-4.3l-.4.4c-.7.7-1.6 1.1-2.7 1.2-.4-.1-.7-.2-.7-.4-.1-1 .3-1.5 1.2-1.4 1.1-.2 1.9-.6 2.5-1.3.4-.7.6-1.4.7-2.1.1-.3.4-.5.8-.4.4 0 .6.2.7.5-.2 1.5-.6 3.1-1.2 4.8-.7 1.8-1.1 3.8-1.2 6h.1c.1 0 .1 0 .1-.1v-.2c1-2.3 1.7-3.7 2.1-4.3.4-.6.9-1.4 1.7-2.6h.4v-.1h-.1v-.3c0-.1.2-.4.5-.8.3-.5.7-1 1-1.5.3-.5.8-1.2 1.4-2.1l.3-.3c.2-.1.3-.2.4-.3.3 0 .6.1 1 .4.2.1.4.3.4.5v.3c-.1.4-.2.7-.4 1.1-.1.4-.2.7-.3 1.1-.1.4-.1.7-.2.9.2.2.2.6 0 1-.3.5-.5.6-.8.5-.6-.2-.7-.6-.3-1.3.1-.8.2-1.2.2-1.3-.2 0-.3.1-.3.1-.5.3-1 .9-1.6 1.7-.6.8-1 1.4-1.2 1.8-.5.7-1 1.6-1.6 2.7-.6 1.1-1.2 2.2-1.8 3.4-.3.6-.5 1.1-.8 1.6-.3.5-.5 1-.8 1.4-.3.6-.6 1.2-.8 1.8-.2.6-.4 1.1-.5 1.5-.7-.1-1 0-1.3 0zm3.1-11.1c-.1 0-.1 0-.2.1s-.2.3-.1.4c.1-.1.2-.1.2-.1.1-.1.1-.3.1-.4zm-.2 4.7h.2v-.2h-.1c-.1 0-.2 0-.1.2zm.6-6.3h-.2c0 .2.1.2.4.2-.1 0-.2-.1-.2-.2zm3.8-.9h.2v-.1c-.1 0-.2 0-.4.1 0-.1.1-.1.2 0zM138.9 61.3h.1c.1-.2.3-.3.5-.4.4-.4.8-.9 1.3-1.5s.8-1.2 1.2-1.7c.1-.1.2-.3.4-.5.1-.2.3-.3.6-.2-.1 0-.2 0-.2.1v.2c-.1 0-.1.1-.2.2v.3c-.1.1-.2.1-.2.1h-.1s.1.1.1.2l-.3.3c-.1.1-.2.2-.2.3 0 .1 0 .2.1.2 0-.3.1-.5.4-.7-.2.2-.3.4-.2.7 0 0-.1.1-.3.2-.1.1-.3.2-.4.2 0 .1 0 .2.1.2 0 0 .1-.1.1-.2s.1-.2.3-.2c-.1.1-.2.2-.3.4-.1.2-.1.3-.2.3l-.3.3c-.1.1-.1.2-.3.2 0 .2-.1.4-.4.7l-.6.6-.3.4h-.1c0 .1-.1.2-.2.4-.3.3-.5.5-.6.5l-.5.5c-.6.4-1.2.7-1.7.9-.2.1-.5.2-.9.2-.6.1-1.2 0-1.8-.1 0-.2-.1-.3-.1-.4-.1 0-.2 0-.2.1 0 0 0 .1-.2.1-1-.3-1.8-1-2.2-2.2-.2-.7-.3-1.6-.3-2.5 0-.9.2-1.9.7-2.9.3 0 .4-.1.3-.2h-.1v-.5h-.1c.2 0 .4-.2.7-.5 0-.2-.2-.3-.5-.3-.1 0-.1-.1.1-.3h.2c.6-2 1.6-4 3-5.8 1.4-1.9 2.5-2.7 3.2-2.7-.1-.1.2-.3.9-.6s1.3-.4 1.8-.4c.7.1 1.1.5 1.2 1.3 0 .8.1 1.4.2 1.9 0 1.3-.3 2.4-1.1 3.4s-1.7 1.9-2.7 2.5c-1.6 1-2.9 1.5-3.9 1.6-1.1.1-1.5-.6-1.2-1.9-.1.2-.2.4-.2.6-.1.2-.1.4-.2.6-.4 1.2-.6 2.5-.7 3.8-.1 1.4.2 2.4.8 3.1.6.8 1.3 1.2 2.1 1.1s1.6-.4 2.4-.9c.3-.2.8-.6 1.2-1.1zm-7.1-5.9v-.1h.2v.4h-.1c-.1-.2-.1-.3-.1-.3zm8.1-9.3c-.5 0-.9.1-1.2.4h-.1c-.3.2-.7.5-1.1.9l-.3.3-.2.2.1.1v.3c-.1.1-.2.1-.3.2s-.1.1-.2.1c0 0 0 .1.1 0-.2.2-.5.6-.9 1.1-.4.5-.5.9-.5 1.1h-.2.1c-.2.2-.3.3-.4.5-.1.2-.2.4-.3.5l.2.2h-.3v.3c-.1 0-.1.1-.1.1v.4l-.1.1v.3l-.1.1.1.1h-.2c-.1 1.1 0 1.6.4 1.7.4.1 1-.1 1.9-.4.2-.1.8-.4 1.6-1 .8-.5 1.5-1.2 2.2-2 1-1.3 1.5-2.6 1.5-4.1 0-1.3-.5-1.9-1.7-1.5zM152.4 59.7h.1c.1-.2.3-.3.5-.4.4-.4.8-.9 1.3-1.5s.9-1.2 1.2-1.7c.1-.1.2-.3.4-.5.1-.2.3-.3.6-.2-.1 0-.2 0-.2.1v.2c-.1 0-.1.1-.2.2v.3c-.1.1-.2.1-.2.1h-.1s.1.1.1.2l-.3.3c-.1.1-.2.2-.2.3 0 .1 0 .2.1.2 0-.3.1-.5.4-.7-.2.2-.3.4-.2.7 0 0-.1.1-.3.2-.1.1-.3.2-.4.2 0 .1 0 .2.1.2 0 0 .1-.1.1-.2.1-.1.1-.2.3-.2-.1.1-.2.2-.3.4-.1.2-.2.3-.2.3l-.3.3c-.1.1-.1.2-.3.2 0 .2-.1.4-.4.7l-.6.6-.3.4h-.1c0 .1-.1.2-.2.4-.3.3-.5.5-.6.5l-.5.5c-.6.4-1.2.7-1.7.8-.2.1-.5.2-.9.2-.6.1-1.2 0-1.8-.2 0-.2-.1-.3-.1-.4-.1 0-.2 0-.2.1 0 0 0 .1-.2.1-1-.3-1.7-1.1-2.1-2.3-.2-.8-.3-1.6-.3-2.5 0-.9.3-1.9.7-2.9.3 0 .4-.1.3-.2h-.1V54h-.1c.2 0 .4-.2.7-.5 0-.2-.2-.3-.5-.3-.1 0-.1-.1.1-.3h.2c.6-2 1.7-3.9 3.1-5.8 1.4-1.8 2.5-2.7 3.2-2.6-.1-.1.2-.3.9-.6s1.3-.4 1.8-.4c.7.1 1.1.5 1.2 1.3 0 .8.1 1.4.1 1.9 0 1.3-.4 2.4-1.1 3.4-.8 1-1.7 1.9-2.8 2.5-1.6 1-2.9 1.5-4 1.5s-1.5-.6-1.1-1.9c-.1.2-.2.4-.2.6-.1.2-.1.4-.2.6-.4 1.2-.6 2.5-.7 3.8-.1 1.3.2 2.4.8 3.1.6.8 1.3 1.2 2.1 1.1.8-.1 1.6-.4 2.5-.8.2-.1.6-.5 1.1-.9zm-7.1-6.1v-.1h.2v.4h-.1c-.1-.2-.1-.2-.1-.3zm8.3-9.2c-.5 0-.9.1-1.3.3h-.1c-.3.2-.7.4-1.1.8l-.3.3-.2.2.1.1v.3c-.1.1-.2.1-.3.2-.1.1-.1.1-.2.1 0 0 0 .1.1 0-.2.2-.6.6-.9 1.1-.4.5-.6.9-.5 1.1h-.2.1c-.2.1-.3.3-.4.5-.1.2-.2.4-.3.5l.2.2h-.3v.3c-.1 0-.1.1-.1.1v.4l-.1.1v.3l-.1.1.1.1h-.2c-.1 1.1 0 1.6.3 1.7s1-.1 1.9-.4c.2-.1.8-.4 1.6-.9s1.6-1.2 2.2-2c1-1.2 1.5-2.6 1.6-4 .1-1.3-.5-1.8-1.6-1.5zM174.8 59.9c0-.1 0-.1 0 0v-.2h-.3c-.1 0-.2 0-.3-.1 0 0 .1 0 .1-.1l-.1-.4h.2c0-.6.2-1.1.6-1.5.3-.3.5-.8.8-1.7.2-.8.5-1.7.7-2.7.2-1 .4-1.9.6-2.8s.3-1.6.4-2.2c.1 0 .1.1 0 .4-.1.3-.1.4-.1.3-.2-.2-.3-.6-.1-1.1h.3c0-.2.1-.7.3-1.5.2-.8.3-1.3.3-1.6h.2v-.2c-.4 0-.8.2-1.3.5-.4.3-.8.4-1.2.5v.2l-.7.3v.1c-.8.1-1.5.3-2.1.8-.6.5-1.2.7-1.9.6v-.1c-.5-.1-.6-.3-.4-.8.3-.4.6-.7.9-.8 0 0 0-.1.1-.1.3 0 .6 0 .8-.1.3-.1.5-.1.7-.1.1-.3.1-.4.1-.3.3 0 .6-.1.9-.2.3-.1.6-.1.9-.2 0-.1.5-.4 1.4-.8.9-.4 1.3-.5 1.2-.3 0 0 .2-.1.5-.3.3-.2.5-.3.6-.3l.4-1s-.1 0-.1-.1c0-.3.1-.5.3-.7l.1.1c.2-.7.4-1.6.7-2.7.3-1.1.5-2.2.7-3h.1c0-.1 0-.2.1-.2s0-.1-.1-.3c-.5.2-1.1.5-1.5.7-.5.3-1 .5-1.6.6v.3c-.7.2-1.2.5-1.5.8-.3.4-.8.5-1.3.5v.2h-.4v-.1h-.2v.1c-.6.2-1 .4-1.3.5-.3.2-.6.3-1.1.4v-.1h-.3v.1c-.2 0-.4-.2-.5-.6-.1-.4 0-.7.4-.8v-.1h.4s.3-.2.8-.5 1.1-.6 1.8-.9c.7-.3 1.4-.6 2-.9s1.1-.4 1.4-.4v-.2s.1-.1.3-.1v-.1h.4v-.3h.8v-.2c.3-.1.9-.3 2.1-.8 1.1-.4 2.3-.9 3.6-1.3 1.3-.5 2.4-.8 3.4-1.2 1-.3 1.5-.5 1.5-.4.6-.1 1.2-.3 1.8-.6.6-.3 1.2-.4 1.9-.5v-.2c.6 0 1.1-.1 1.5-.4v-.1h.7c-.1.1-.1.1-.1.3h.2V28.6c.8-.2 1.5-.4 2.1-.7.6-.2 1.2-.4 2-.6v-.1c1.1-.2 1.7-.1 1.8.3.1.4 0 .6-.2.6-.1.1-.2.2-.2.3-.5.1-1.2.4-2 .7-.8.4-1.3.6-1.5.7 0 .1 0 .2-.1.3h-.4c-.1-.8-.5-.9-1.3-.3-.8.5-2.2.9-4.2 1.2v.1h-.8l-.1.1c-.2 0-.4.1-.6.1-.2.1-.3.1-.4.1 0 0 0 .1-.1.1h-.4c0 .1-.2.2-.7.3-.5.1-.8.1-.9.1 0 .2-.3.3-.7.3v.1c-.4.1-.7.2-1.1.3-.3.1-.7.2-1 .2 0 .1 0 .2-.1.2v-.2h-.1c-.1.2-.2.3-.5.4-.2.1-.4.1-.5.1v.2c-.3 0-.7.1-1.1.3-.4.1-.7.4-.7.7v.3c-.1.2-.1.3 0 .3-.4 1.4-.7 2.5-1 3.2-.3.7-.6 1.8-.8 3.3.1.1.2.1.2.1 0-.1.6-.4 1.6-.7 1.1-.3 1.7-.6 2-.8v-.1c.3 0 .6-.1.7-.2.1-.1.4-.2.7-.2v-.3c.1 0 .2.1.2.2 0 0 .1 0 .1-.1v-.3c.5-.1 1-.3 1.4-.4.4-.2.9-.3 1.3-.3 0-.2.1-.3.3-.3.1 0 .1-.1.1-.2 1-.3 2.1-.6 3.1-.9 1.1-.3 2.1-.5 2.9-.5v-.2s.1.1.1.2c.4 0 .7.3.7.7 0 .4-.2.7-.6.9l-.1-.1c-.2.2-.5.2-.8.2h-.8v.1c-.2.1-.5.2-.9.2s-.6.1-.6.3c-.1 0-.1-.1-.1-.1h-.1v.1c-2.8.6-4.2 1-4.3 1.3-.4.1-1 .3-1.9.7-.9.3-1.4.6-1.4.7-.8.1-1.5.3-2.3.6-.8.3-1.5.7-2.1 1v.2h-.2c-.1.3-.2.5-.3.6-.1.2-.2.4-.2.6h-.3c0 .2-.1.9-.3 2-.3 1.1-.5 1.7-.6 1.7 0 1-.3 2.5-.8 4.5-.5 1.9-.6 3.3-.4 4h-.3c-.1.3-.1.5-.2.7-.1.2-.1.4-.1.5h-.2c-.1.6-.2 1-.4 1.3.1.3-.3.5-1 .6zm7.7-26.1s.1 0 .2-.1c.1 0 .2-.1.3-.1v-.1c-.1 0-.2.1-.3.1-.1 0-.2 0-.2.1v.1zm1.4-.8l-.1.1v.3c.1-.1.1-.2.1-.4zm.7 8.1c.3-.1.7-.3 1.1-.4.4-.2.8-.3 1.1-.3v-.1h.4c-.1-.1-.1-.2-.2-.2 0 .1 0 .1-.1.1-.2-.1-.6 0-1.3.2-.7.3-1 .5-1 .7zm.4-8.1l-.1-.1-.3.2.1.1c0-.2.1-.2.3-.2zm.5-.4h.1-.3l.1.1c0-.1 0-.1.1-.1zm1.2-.3c.1-.1.4-.2.8-.2l.1.1V32c-.2 0-.5.1-.7.2-.3.1-.5.2-.7.1v.2c.2-.1.4-.1.5-.2zm.9 7.7c.1 0 .3-.1.4-.1-.1 0-.2 0-.4.1-.1-.1-.3-.1-.4-.1v.1c.2.1.3 0 .4 0zm.2-8l.2-.2s.2-.1.3-.2c0 0-.3 0-.6.1v.3h.1zm2.1-.7h-.4v.2h-.2v-.1s-.1 0 0 .2h-.2v.1l.8-.4zm0-.6c.1 0 .2.1.2 0-.1-.2-.2-.2-.2 0zm.2.5h.1l.1-.4-.4.2v.2c.1.1.2.1.2 0zm1.1-.2c.1-.1.1-.2.2-.3h-.2V31zm.4-.2l.3-.2c-.2 0-.3-.1-.4-.2 0 .1.1.3.1.4zM193.3 59.2c-.5-.3-.7-1-.7-2.1l.3-1.8c.1-.5.3-1.2.6-2 .3-1.1.9-2.2 1.7-3.5.8-1.3 1.3-2.3 1.4-3.1h.2c0-.2 0-.3-.1-.4.1-.1.3-.3.5-.6.2-.4.4-.7.5-.9-.1-.7-.2-1 0-1.1.1-.1.3-.3.5-.9.3-.8 1-1.3 2-1.7 1-.3 1.9-.5 2.8-.6.3.1.5.3.8.6.2.3.4.7.4 1 .4 0 .8-.1 1.2-.3.4-.2.9-.3 1.4-.6.6-.3 1.3-.6 2-.9.7-.3 1.3-.5 2-.7l.2-.2c.3-.1.6-.1 1-.1s.8.1 1.1.3c.3.2.4.4.3.5-.1.1-.3.2-.6.4-.4.3-.7.2-.9-.3-2.2.2-3.7.7-4.4 1.6-.8.9-1.8 1.5-3.1 1.9-.2.3-.3.6-.3.9-.1.3-.1.6-.3.9l.1.1c-.3.9-.6 2-1 3.2-.4 1.2-.8 2.3-1.4 3.2-.1 0-.2.1-.3.2v.1h-.2s.1 0 .1.1l.1.1v.2c-.2 0-.3.1-.4.2v.1c-.1.1-.2.1-.3.3 0 .4-.6 1.3-1.9 2.7-1.3 1.3-2.4 2.1-3.2 2.3 0 .1-.2.2-.4.3-.2 0-.4.1-.5.1-.2.3-.3.4-.5.5h-.7zm.7-1.6c.2-.1.4-.2.7-.2v-.1c.1-.1.3-.1.4-.1.1.2.6 0 1.3-.5.7-.5 1.5-1.4 2.4-2.5.9-1.1 1.7-2.5 2.5-4.1.8-1.6 1.3-3.4 1.5-5.4-.2.2-.7.4-1.5.5-.8.2-1.5.2-2.2.1-.1.1-.3.2-.5.3-.2.1-.4.2-.4.3-.3.4-.7 1.1-1.2 2-.5.9-1 2-1.5 3.1-.5 1.2-1 2.3-1.3 3.5-.2 1.3-.3 2.3-.2 3.1zm7.5-14.2c.2 0 .4-.1.7-.1.3-.1.5-.2.7-.4 0-.3-.1-.4-.1-.5-.1-.1-.2-.2-.3-.4-.4 0-.6.1-.6.2-.3.1-.5.1-.6.1-.2 0-.3.1-.4.2-.2.2-.2.4 0 .5l.1.1c0 .2.2.3.5.3zM209.7 58.1c-.5-.3-.7-1-.6-2.2l.3-1.8c.1-.5.3-1.2.6-2 .3-1 .9-2.2 1.8-3.5.9-1.3 1.3-2.3 1.5-3.1h.2c0-.2 0-.3-.1-.4.1 0 .3-.3.5-.6.2-.4.4-.7.5-.9-.1-.7-.1-1 0-1.1.1 0 .3-.3.5-.9.3-.8 1-1.3 2-1.6 1-.3 1.9-.5 2.8-.5.3.1.5.3.7.6.2.4.4.7.4 1 .4 0 .8-.1 1.2-.3.4-.2.9-.3 1.4-.5.6-.3 1.3-.6 2-.9.7-.3 1.4-.5 2-.7l.2-.2c.3-.1.6-.1 1-.1s.8.1 1.1.4c.3.2.4.4.3.5-.1.1-.3.2-.6.4-.5.3-.7.2-.9-.3-2.2.1-3.7.6-4.5 1.5-.8.9-1.8 1.5-3.1 1.8-.2.3-.3.6-.3.9l-.3.9.1.1c-.3.9-.6 2-1 3.2-.4 1.2-.9 2.3-1.5 3.2-.1 0-.2.1-.3.2v.1h-.2s.1 0 .1.1l.1.1v.2c-.2 0-.3.1-.4.2v.1c-.1.1-.2.1-.3.3 0 .4-.6 1.3-2 2.6s-2.4 2.1-3.2 2.2c0 .1-.2.2-.4.2s-.4.1-.5.1c-.2.3-.3.4-.5.5-.1.1-.4.1-.6.2zm.7-1.7c.2-.1.4-.2.7-.2v-.1c.1 0 .3-.1.4-.1.1.2.6 0 1.3-.5.7-.5 1.6-1.4 2.5-2.5.9-1.1 1.8-2.5 2.6-4s1.3-3.4 1.6-5.4c-.2.2-.7.4-1.5.5-.8.2-1.5.2-2.2.1-.1.1-.3.2-.5.3-.2.1-.4.2-.4.3-.3.4-.7 1.1-1.2 2s-1.1 2-1.6 3.1-1 2.3-1.3 3.5c-.4 1.2-.5 2.2-.4 3zm7.7-14.1c.2 0 .4 0 .7-.1.3-.1.5-.2.7-.4 0-.3-.1-.4-.1-.5-.1-.1-.2-.2-.3-.4-.4 0-.6.1-.6.2-.3.1-.5.1-.6.1-.2 0-.3.1-.4.2-.2.2-.2.4 0 .5l.1.1c0 .2.2.3.5.3zM241.2 39.2c-.1.3-.2.6-.4.9-.2.3-.3.6-.3.9-.3 1-.5 1.6-.5 1.7h-.2v.4c0 .1-.1.1-.3.1 0 .4-.1.7-.3 1.1-.2.3-.3.6-.3.8-.1.1-.3.7-.6 1.7s-.5 2-.7 3.1v.1c0 .1-.1.2-.1.2-.3 1.3-.3 2.2-.2 2.7.1.3.4.4.7.4.1 0 .2 0 .3-.1.3 0 .9-.3 1.7-.8.9-.5 1.6-1.1 2.3-1.6.1-.1.3-.2.5-.4s.4-.2.6-.1h-.4v.2s-.1 0-.1.1l-.1.1s-.1.1-.1.3h-.3v.3c-.1 0-.3.2-.7.3 0 .1 0 .2.1.3 0-.3.2-.5.6-.6-.2.1-.3.3-.5.7 0 0-.1 0-.3.1-.2 0-.3.1-.4.1-.1 0-.1.1 0 .2 0 0 .1 0 .2-.1s.2-.1.3-.1c-.2 0-.3.2-.4.3-.1.2-.2.3-.2.3-.2 0-.4.2-.6.3 0 .2-.2.3-.4.5-.2.1-.4.2-.5.3l-1.2.6c-.4.2-.6.3-.7.3-.5.1-1 .1-1.5.1-.4-.2-.7-.6-.7-1.1-.1-.5-.1-.9-.1-1.1l.3-1.2.2-.5c0-.2.1-.3.1-.5s.1-.4.2-.6c-.8 1.4-1.7 2.8-2.9 4.1-1.2 1.3-2.4 2-3.7 2.1-.9 0-1.5-.1-2.1-.3 0-.2 0-.3-.1-.3s-.2 0-.2.1c0 0-.1.1-.2.1-.8-.4-1.4-1.2-1.6-2.4-.1-.8 0-1.6.2-2.6s.6-1.9 1.2-2.9c.1 0 .2 0 .2.1.1 0 .1 0 .1-.2h-.1c0-.1 0-.2.1-.2 0-.1.1-.1.1-.2-.1 0-.2 0-.2-.1.3-.1.5-.2.9-.4 0-.1-.2-.2-.6-.4.2-.1.3-.2.2-.3h.1c1-2 2.3-3.8 4.1-5.5 1.8-1.7 3-2.5 3.6-2.4 0-.1.3-.3 1-.5s1.3-.2 1.9-.1c.5.1.7.2.7.5 0 .1 0 .2.1.3h1c.2-.4.3-.9.6-1.4.2-.5.4-1 .6-1.4 0 0 0-.1.1-.2 0-.1.1-.2.1-.3.2-.5.4-1 .7-1.5.3-.5.5-1 .6-1.6l.4-.4c0-.4.1-.7.3-1 .2-.3.4-.6.6-.8.2-.5.7-.7 1.3-.7.6 0 .9.2.8.5v.8c0 .3-.2.7-.5 1.1-.7.9-1.4 1.9-1.9 3-.2.3-.3.7-.5 1-.2.4-.3.7-.5 1-.2.6-.5 1.1-.8 1.7-.1.2-.2.4-.2.5-.4.3-.5.4-.5.5zm-4.3 7.7c-.2.4-.3.6-.3.7l.3-1v-.1l.1-.3h.1v-.1l.1-.3c.1 0 .2-.2.2-.3h-.1c0-.1 0-.2.1-.3h.2v-.1c-.1-.1-.1-.2-.1-.3 0 0 .1 0 .1-.1.1-.4.2-.7.3-1 .1-.3.2-.6.3-.8 0-.1.1-.3.1-.5s.1-.3.2-.5H238.2c-.5 0-.7-.2-.7-.6 0-.5.2-.9.7-1.3.5-.4.7-.7.6-1 0-.1-.1-.1-.1-.2h-.2c-.3-.4-.8-.7-1.3-.8-1.3 0-2.8.8-4.5 2.7-1.7 1.8-3.1 3.8-4.2 5.9-.6 1.2-1 2.5-1.3 3.8-.3 1.3-.2 2.4.2 3.2.5.9 1.2 1.3 1.9 1.3.8 0 1.6-.3 2.5-.7 1-.5 2-1.4 2.9-2.7 1-1.3 1.6-2.4 2-3.2-.1-.3 0-.8.2-1.4zm-9.9-.4c.1 0 .2.1.3.1v.2h-.2c0-.1 0-.2-.1-.3zm10.7 2.2zm.5-.5c0 .2-.1.3-.1.5-.1.2-.1.3-.1.6h-.1c-.1-.6.1-.9.3-1.1zm.5-1.7c0-.1.1-.2 0-.5h.3c0 .1-.1.2-.1.2s-.1.1-.1.2l-.1.1zm.3-1.3h.2v.2h-.2v-.2zm1-2.2c.1-.2.1-.3.2-.5.1.3 0 .7-.2 1h-.1c0-.2 0-.4.1-.5zm.8-2.1s0-.1.1-.2l-.1.2zm.4-.7v-.4s0 .1.1.1v.3h-.1zm.3-5c-.1 0-.1 0 0 0-.1-.1-.2 0-.3.1l.1.1.2-.2zm-.2 4.5c0-.3.1-.5.3-.5 0 .1-.1.3-.3.5zm.5-1.1l.1-.1c0 .1 0 .1-.1.1zm.7-1.9l.2-.2-.2.2zm.2-.3c0-.2 0-.3.1-.4s.2-.2.3-.4c0 .1-.1.2-.2.4-.1.3-.1.4-.2.4zM261 55.1c0-.1 0-.1 0 0v-.2h-.3c-.1 0-.2-.1-.3-.1 0 0 .1 0 .1-.1l-.1-.5h.2c0-.6.3-1 .7-1.5.3-.3.6-.8.9-1.6.3-.8.6-1.7.9-2.6.3-.9.6-1.9.8-2.8.2-.9.4-1.6.6-2.1.1 0 .1.1 0 .4-.1.3-.2.3-.1.3-.2-.3-.2-.6 0-1.1.1 0 .2.1.3.1 0-.2.2-.7.4-1.5s.4-1.3.4-1.6h.2V40c-.4 0-.9.1-1.3.4-.4.2-.9.4-1.3.4v.2l-.7.2v.1c-.8 0-1.5.2-2.1.6-.6.4-1.3.5-1.9.4v-.1c-.5-.1-.6-.4-.3-.8s.6-.7.9-.7c0 0 0-.1.1-.1h.8s.5-.1.7 0c.1-.3.2-.4.1-.3.3 0 .6 0 .9-.1.3-.1.6-.1.9-.1 0-.1.5-.3 1.5-.7.9-.4 1.4-.4 1.2-.2 0 0 .2-.1.5-.3.3-.2.5-.3.6-.3l.5-1s-.1 0-.1-.1c0-.3.1-.5.3-.7l.1.1c.3-.6.6-1.5 1-2.6s.7-2.1 1-3h.1c0-.1 0-.2.1-.2s.1-.1 0-.4c-.6.2-1.1.4-1.6.6-.5.2-1.1.4-1.7.4v.3c-.7.1-1.2.4-1.6.7-.4.3-.8.5-1.3.4v.2h-.4v-.1h-.2v.1c-.6.1-1 .3-1.3.4-.3.2-.7.3-1.1.4V34h-.3v.1c-.2 0-.4-.2-.4-.6-.1-.4.1-.7.5-.7v-.1h.4s.3-.2.8-.4c.6-.2 1.2-.5 1.9-.7.7-.3 1.4-.5 2.1-.7s1.2-.3 1.4-.3c0-.1 0-.2.1-.2 0 0 .1-.1.3-.1v-.1h.4v-.3h.8v-.2c.3 0 1-.2 2.1-.6 1.2-.3 2.4-.7 3.7-1 1.3-.3 2.5-.6 3.5-.9 1-.2 1.6-.3 1.6-.3.6 0 1.2-.2 1.8-.4.6-.2 1.2-.3 1.9-.3 0-.1 0-.2.1-.2.6.1 1.1 0 1.5-.3v-.1h.7c-.1 0-.1.1-.1.3h.2V25.6c.9-.1 1.6-.3 2.2-.5s1.3-.3 2-.4v-.1c1.1-.1 1.7.1 1.8.4.1.4 0 .6-.2.6-.1.1-.2.2-.2.3-.5.1-1.2.3-2 .5-.8.3-1.4.5-1.6.6 0 .1 0 .2-.1.3-.1 0-.2 0-.4-.1 0-.8-.4-.9-1.3-.5-.9.5-2.3.8-4.2.8v.1h-1l-.1.1c-.2 0-.4 0-.6.1-.2.1-.3.1-.5.1 0 0 0 .1-.1.1h-.4c0 .1-.2.2-.7.3h-.9c0 .2-.3.3-.8.3v.1c-.4 0-.8.1-1.1.2-.3.1-.7.1-1 .1 0 .1 0 .2-.1.2V29h-.1c-.1.2-.2.3-.5.3-.2 0-.4.1-.5.1v.2c-.3 0-.7.1-1.1.2-.4.1-.7.3-.8.6 0 0 0 .1-.1.3-.1.2-.1.3 0 .3-.5 1.4-.9 2.4-1.3 3.1-.3.7-.7 1.8-1.1 3.2.1.1.1.1.2.1 0-.1.6-.3 1.7-.6s1.8-.4 2-.6v-.1c.3 0 .6-.1.7-.2.1-.1.4-.1.7-.1 0-.1 0-.2.1-.3.1 0 .2.1.2.3 0 0 .1 0 .1-.1s0-.2.1-.3c.5-.1 1-.2 1.4-.3.4-.1.9-.2 1.3-.2 0-.2.1-.3.3-.3.1 0 .1-.1.1-.2 1-.2 2.1-.4 3.2-.6 1.1-.2 2.1-.3 3-.3v-.2s.1.1.1.2c.4.1.6.3.6.7 0 .4-.2.7-.7.8l-.1-.1c-.3.1-.5.2-.8.1-.3 0-.6-.1-.8-.1v.1c-.2.1-.5.1-.9.1s-.6.1-.6.2c-.1 0-.1-.1-.1-.1h-.1v.1c-2.8.3-4.3.7-4.4 1-.4.1-1.1.3-2 .5-.9.3-1.4.4-1.4.6-.8 0-1.6.1-2.3.4-.8.3-1.5.5-2.2.8v.2h-.2c-.1.3-.2.5-.4.6-.1.2-.2.4-.2.6h-.3c0 .2-.2.9-.5 1.9-.3 1.1-.6 1.6-.8 1.6-.1 1-.5 2.5-1.2 4.4-.7 1.9-.9 3.2-.7 3.9h-.3c-.1.3-.2.5-.3.6-.1.2-.1.3-.1.5h-.2c-.1.6-.3 1-.5 1.3.2.7-.3.9-1 .9zm10-25.3s.1 0 .2-.1c.1 0 .2-.1.3-.1v-.1c-.1 0-.2.1-.3.1h-.2c-.1.1 0 .2 0 .2zm1.5-.7l-.1.1v.3c0-.1 0-.2.1-.4zm-.1 8.2c.3-.1.7-.2 1.1-.3.4-.1.8-.2 1.1-.2v-.1c.1 0 .3 0 .4.1-.1-.1-.1-.2-.1-.3 0 .1 0 .1-.1.1-.2-.1-.6-.1-1.4.1s-1 .4-1 .6zm1.1-8.1l-.1-.1-.3.1.1.1c.1-.1.2-.1.3-.1zm.5-.4h.1-.3l.1.1.1-.1zm1.3-.2c.1-.1.4-.1.8-.2l.1.1v-.2c-.2 0-.5 0-.7.1-.3.1-.5.1-.7.1v.2c.2 0 .4 0 .5-.1zm.3 7.8c.1 0 .3-.1.4-.1-.2 0-.3 0-.4.1-.1-.1-.3-.1-.4-.1v.1h.4zm.8-7.9l.2-.2c.1-.1.2-.1.3-.2h-.6c0 .1 0 .2-.1.3.1 0 .1 0 .2.1zm2.2-.6h-.4v.2h-.2V28s-.1 0-.1.2h-.2v.1c.4-.2.7-.3.9-.4zm.1-.6c.1 0 .1.1.2.1-.2-.2-.2-.3-.2-.1zm.1.6h.1l.1-.4-.4.2v.2h.2zm1.1-.2c.1-.1.2-.2.2-.3h-.2V27.7zm.4-.1l.3-.1c-.2 0-.3-.1-.4-.3 0 .1.1.2.1.4zM288.6 52.6h.1c.2-.2.3-.3.5-.4.4-.3.9-.8 1.5-1.3.5-.5 1-1 1.4-1.6.1-.1.3-.2.5-.4s.4-.3.6-.1c-.1 0-.2 0-.3.1v.2c-.1 0-.2 0-.2.1 0 0 0 .1-.1.3-.1 0-.2.1-.2.1h-.1s.1.1.1.3l-.3.3c-.1.1-.2.2-.2.3 0 .1 0 .2.1.3 0-.3.2-.5.5-.6-.2.2-.3.4-.3.7 0 0-.1 0-.3.1-.2.1-.3.1-.4.2 0 .1 0 .2.1.2l.2-.2c.1-.1.2-.2.3-.2-.1.1-.3.2-.4.3-.1.1-.2.2-.2.3l-.3.3c-.1.1-.2.1-.3.2 0 .2-.2.4-.5.6-.3.2-.6.4-.7.5l-.4.4h-.1c0 .1-.1.2-.3.3-.4.3-.6.4-.7.4-.1.1-.3.2-.6.4-.6.3-1.3.5-1.8.6-.3.1-.6.1-.9.1-.6 0-1.2-.1-1.8-.4 0-.2 0-.3-.1-.4-.1 0-.2 0-.2.1 0 0 0 .1-.2.1-1-.4-1.6-1.3-1.8-2.5-.1-.8-.1-1.6 0-2.5.1-.9.5-1.8 1.1-2.8.3 0 .4-.1.3-.2h-.1c0-.1.1-.3.1-.4 0 0-.1 0-.1-.1.2 0 .4-.1.8-.4 0-.2-.1-.3-.4-.3-.1 0 0-.1.1-.3h.2c.9-1.9 2.2-3.7 3.9-5.3 1.7-1.6 2.9-2.3 3.5-2.2 0-.1.3-.3 1-.4.7-.2 1.3-.2 1.9-.2.7.2 1 .7 1 1.4-.1.8-.1 1.4-.1 1.9-.2 1.2-.7 2.3-1.6 3.2-.9.9-1.9 1.6-3.1 2.1-1.7.7-3.1 1.1-4.1 1-1.1-.1-1.4-.8-.9-2.1l-.3.6s-.2.4-.3.5c-.5 1.1-.9 2.4-1.2 3.7-.3 1.3-.2 2.4.3 3.2.5.9 1.1 1.4 1.9 1.4.8 0 1.6-.1 2.5-.5.4-.3.9-.6 1.4-1zm-6.2-6.9v-.1h.2v.4h-.1c-.1-.2-.1-.3-.1-.3zm9.4-8c-.5-.1-.9 0-1.3.2h-.1c-.3.1-.7.4-1.2.7l-.3.3c-.1.1-.2.1-.3.2l.1.1v.3c-.1 0-.2.1-.3.2-.1.1-.1.1-.2.1 0 0 0 .1.1.1-.3.2-.6.5-1.1.9-.5.4-.7.8-.6 1.1h-.2l.1.1c-.2.1-.3.3-.5.5-.1.2-.3.3-.4.5 0 0 .1.1.2.3h-.3v.3c-.1 0-.1 0-.1.1 0 0 0 .1-.1.2 0 .1-.1.1-.1.2l-.1.1c0 .2 0 .3-.1.3l-.1.1.1.1h-.2c-.3 1-.2 1.6.1 1.7s1 .1 1.9-.2c.3-.1.8-.3 1.7-.7.9-.4 1.7-.9 2.4-1.7 1.2-1.1 1.9-2.4 2.1-3.8.5-1.9 0-2.5-1.2-2.3zM294 57.9c-.5 0-.6-.4-.5-1 .1-.4.3-.8.5-1.2.2-.4.5-.9 1-1.5.8-1.3 1.8-2.6 3.1-3.9 1.2-1.3 2.3-2.2 3.2-2.6 0-.1 0-.1.1-.2 0-.1 0-.1.1-.1v-.2c.2-.1.4-.3.8-.6s.7-.4 1.2-.5V46s.1-.1.3-.1c0 0-.1-.1-.1-.2.1 0 .2-.1.3-.1.1-.2.4-.3 1-.4V45c.5-.3 1.2-.5 2.1-.8.9-.2 1.6-.4 2.1-.5.3-.3.5-.6.6-.9.2-.3.3-.7.5-1 .1-.4.3-1 .5-1.7s.1-1.2-.3-1.5c-.2-.2-.6-.3-.9-.3h-.7V38c-.2 0-.2.1-.1.3-1.2 0-2.6.6-4.1 1.7-1.5 1.1-2.5 1.9-3 2.4v.1c-.4.2-.9.6-1.3 1.1-.4.6-.8.9-1.1.9v.2c-.3.2-.6.4-.9.5-.3.1-.6.1-1 .1-.4-.1-.6-.4-.5-.8l.3-1.2c.2 0 .3 0 .3-.1 0-.4.3-.8.7-1.1.5-.3.8-.7 1-1.2.3-.5.5-.7.8-.7.2-.3.4-.5.5-.8 1.6-2.5 3.1-5.1 4.3-7.8 1.3-2.7 2.1-4.1 2.5-4.3-.1-.2 0-.5.2-.8.1-.3.1-.6.2-.9.1-.3.4-.5.9-.6.3 0 .6.3.8.7.3.5.1 1-.6 1.6-1.5 2.4-2.8 4.4-3.7 5.9-.9 1.5-1.7 3-2.5 4.3-.8 1.4-1.1 2.3-1.1 2.7.3-.2.7-.5 1.2-.8.5-.3.9-.4 1.1-.5h.1v.2c0-.1.1-.1.2-.2 0 0 0-.1 0 0v-.2h.1v-.1c.8-.4 1.8-.7 2.9-1 1.1-.3 2.2-.3 3.1-.2 0 0 .1 0 .1.1 1.2 0 1.8.8 1.6 2.4-.2 1.5-.7 2.7-1.4 3.6.8 0 1.5.1 2.2.1.7.1 1.2.2 1.4.3-.9-.2-1.7-.3-2.5-.3s-1.2.1-1.2.1c-2.4 2.7-4.7 5.4-6.9 8-2.2 2.6-5 4.6-8.6 6 .1 0-.3.1-.9.2zm1.5-2c2.3-.4 4.3-1.4 6-3 1.7-1.6 3.2-3.3 4.6-5 .3-.4.7-.9 1.2-1.5s1.1-1.4 1.9-2.4c-.7.1-1.7.4-2.8 1-1.1.6-1.9 1.1-2.5 1.5-.1-.1-.3-.1-.5-.1 0 .2-.1.3-.4.4-.3.1-.4.1-.5.1v.5c-.1 0-.3 0-.4.1-.3.2-.5.4-.7.6-.5.4-1.4 1.3-2.7 2.7-1.3 1.4-2.1 2.4-2.5 2.8-.8 1-1.3 1.7-1.3 2.1 0 .2.2.3.6.2zm6.4-8.2c0-.1.1-.3.3-.4h.2c-.1.2-.2.3-.5.4zm.7-.8v-.1s.1.1.2.1h.3c0 .1 0 .1.1.1-.1 0-.2 0-.3.1-.1 0-.2-.1-.3-.2zm.9-.4h.2v.2h-.1c0-.1-.1-.2-.1-.2zM312.8 56.2c-.4-.1-.6-.4-.5-.8.1-.5.2-.8.4-.9l.5-.8h.3c.1-.2.2-.3.3-.4.2-.1.3-.3.4-.6-.3.1-.4.2-.5.2l.4-.6h.1c.1-.1.2-.2.2-.4l.1-.1h.1c0-.1 0-.2.1-.3l-.1.1.4-.8h.2c0-.1.1-.2.1-.4.2-.3.5-.7.8-1.3h.1c.1-.2.3-.3.4-.4.2-.1.3-.3.3-.6-.1.1-.3.2-.4.2.1-.2.3-.4.4-.6.2 0 .3-.2.3-.4v-.1h.1c.1-.1.1-.2.1-.3l-.2.1c.9-1.5 1.4-2.8 1.7-4l-.5.3c-.8.5-1.8.7-2.9.7-.4-.2-.6-.3-.6-.5.1-1 .6-1.4 1.5-1.1 1.1.1 2-.2 2.8-.8.5-.6.9-1.2 1.1-1.9.2-.3.5-.4.9-.3.4.1.6.3.6.6-.5 1.4-1.2 2.9-2.2 4.5-1 1.6-1.8 3.5-2.4 5.6h.1c.1 0 .1 0 .1-.1v-.2c1.4-2 2.4-3.3 2.9-3.8l2.2-2.2c.1 0 .3 0 .4.1 0-.1 0-.1.1-.1h-.1v-.3c0-.1.3-.3.7-.7.4-.4.8-.8 1.3-1.2.4-.4 1-1 1.7-1.8.1-.1.2-.2.4-.2s.3-.1.5-.2c.3 0 .5.2.9.6.2.1.3.3.3.5v.3c-.2.3-.4.7-.6 1-.2.3-.4.7-.5 1-.2.4-.3.7-.4.8.2.3.1.6-.3 1s-.7.5-.9.3c-.6-.3-.6-.8 0-1.4.3-.8.4-1.2.5-1.3h-.3c-.5.2-1.2.6-1.9 1.3-.8.7-1.3 1.2-1.6 1.5-.6.6-1.3 1.3-2.1 2.3-.8 1-1.6 1.9-2.5 2.9-.4.5-.7 1-1.1 1.4-.4.4-.7.8-1 1.3-.4.5-.8 1.1-1.2 1.6-.4.5-.6 1-.8 1.3-.5.5-.9.5-1.2.4zm4.1-5.7h.2v-.2h-.1s0 .1-.1.2zm1.2-4.5c-.1 0-.2 0-.2.1-.1.1-.2.2-.2.4.1 0 .2-.1.3 0 .1-.2.1-.4.1-.5zm.7-1.5h-.2c0 .2.1.3.3.3 0-.1-.1-.2-.1-.3zm4-.1h.2v-.1h-.4l.2.1zM345 40.8c.6.3.7.9.3 1.6-.4.8-1.1 1.8-1.9 3-.9 1.2-1.8 2.6-2.8 4.1-1 1.6-1.8 3.3-2.3 5.2l.3-.2c.3-.1.1.4-.6 1.5s-1.1 1.8-1.1 2.1c-.2.3-.6.4-1 .3-.4-.1-.6-.3-.6-.6.5-1.5 1.2-3.1 2.4-4.8 1.1-1.7 2-3.7 2.8-6h-.3s.1.1 0 .3c-.1.1-.6.7-1.6 1.8s-2 2.3-3.2 3.6c-1.2 1.3-2.3 2.5-3.3 3.5-1.1 1.1-1.7 1.6-1.9 1.6-.1 0-.3.1-.7.3-.4.2-.8 0-1.2-.5-.2-.3-.3-.6-.2-.9.9-2 2.2-4.3 3.9-6.9s2.9-4.7 3.6-6.2c.1-.2 0-.3-.2-.1-.2.2-.3.1-.1-.2.1-.4.3-.7.5-1 .2-.3.3-.6.5-.9l.6-.9c.2-.2.6-.2 1.2-.1s.7.6.2 1.3c-.6 1-1.3 2.1-2.1 3.3-.8 1.2-1.5 2.3-2.3 3.4v.4c-.4.7-1.1 1.8-2 3.2-.9 1.4-1.4 2.5-1.5 3.1.6 0 1.4-.5 2.5-1.5 1.1-.9 2.2-2 3.4-3.3 1.2-1.2 2.3-2.5 3.3-3.7 1-1.2 1.8-2.1 2.3-2.7 1.1-1.4 1.8-2.3 2-2.7.1-.4.5-.6 1.1-.4zm-10.8 12.3H333.9c0 .1.1.2.1.2h.4-.1s0-.1-.1-.2zm4.2 0c.2.1.2.1.2-.1s-.1-.2-.2-.2V53.1zm2.1-6.4h-.2s0 .1.1.3h.1v-.3zM344.8 58.3v-.5c-.1 0-.2 0-.2.1s-.1.1-.2.1c0-.1-.1-.2-.3-.4-.2-.2-.3-.4-.3-.7-.2 0 .1-.9.8-2.7.7-1.8 1.4-3.1 2.2-3.9.3 0 .4 0 .4-.2h-.1l.2-.4c-.1 0-.1 0-.1-.1.1 0 .3 0 .4-.1.1-.1.3-.1.5-.2 0 0-.1-.2-.4-.4 0 0 0-.1.2-.2h.2c1.3-1.8 2.9-3.4 4.8-4.9 1.9-1.5 3.2-2.1 3.8-1.8 0-.1.4-.2 1.1-.3.7-.1 1.3-.1 1.8 0s.7.4.6.7c0 .2 0 .3.1.3.2.1.5.1.8.2.4.1.5.4.3 1s-.5 1.2-.8 1.7c-.2.4-.3.7-.5 1s-.2.5-.2.6h-.2v.4h-.4c0 .4-.2.7-.3 1-.2.3-.3.6-.3.8-.1 0-.5.6-1 1.6-.6 1-1 2-1.5 3.1-.2.6-.4 1.2-.6 1.7-.2.5-.2.9-.1 1.1l-.1.1v.1l.2.2c.1.1.4.2.9.1l1.8-.6s1.7-.8 2.4-1.2l.6-.3c.2-.1.4-.1.6.1h-.4v.2s-.1.1-.1.2l-.2.2h-.4v.3c-.1.1-.3.1-.4.2-.1 0-.2.1-.4.1v.3c.3-.3.5-.4.6-.4-.3.1-.4.3-.5.6-.2-.1-.4-.1-.8 0-.1 0-.1 0 0 .1 0 0 .1 0 .2-.1s.2-.1.3-.1c-.2 0-.3.1-.5.2-.1.1-.2.2-.3.2-.1.1-.3.2-.6.3-.1.1-.2.3-.5.4-.3.1-.4.2-.6.2-.4.1-.8.3-1.3.4-.4.1-.7.2-.9.2-.4.1-.8 0-1.3-.1-.2-.2-.3-.4-.4-.6-.1-.3-.1-.5-.1-.8v-1s.1-.1.2-.1v-.4c.1-.2.2-.4.2-.6h.1c.2-.5.4-1.1.7-1.7.3-.6.5-1 .6-1.4l.4-.9c0-.1.1-.3.2-.5s.2-.4.2-.5c-.2.5-.5.9-.8 1.4-.3.4-.6.8-.9 1.1-.7.7-1.4 1.4-2.3 2.1-.9.8-1.8 1.5-2.7 2.1-.9.6-1.8 1.1-2.6 1.3-.6.3-1.3.3-1.8 0zm13.9-12.2c-.5-.1-.7-.3-.7-.6.1-.5.3-.9.8-1.2.5-.3.8-.6.8-.9l-.1-.1s-.1-.1 0-.2c-.4-.6-.8-.9-1.3-.9-1.1-.2-2.6.4-4.3 1.8-1.7 1.5-3.3 3.2-4.8 5.1-1.1 1.4-2.1 2.8-2.9 4.3-.8 1.4-1.3 2.5-1.4 3.3.1.1.2.2.5.3.3.1.5.1.8 0 .6-.1 1.3-.4 2.2-.9s1.8-1.1 2.7-1.8c.9-.7 1.8-1.4 2.5-2.1.8-.7 1.4-1.3 1.8-1.9 0-.1 0-.2.1-.2 0-.1.1-.2.1-.3.1 0 .3 0 .5.1v-.2c.2 0 .3-.1.2-.1 0 0 0-.1.2-.3 0 .1.2-.2.7-.9.7-.7 1.2-1.4 1.6-2.3zm-11.1 3.2v-.2h.2c-.1.1-.1.2-.1.3h-.1v-.1zM361.3 60.2c-.4-.1-.5-.4-.5-.8.1-.5.3-.7.4-.9l.6-.8h.3c.1-.2.2-.3.4-.4s.3-.3.5-.5c-.3.1-.4.2-.5.2l.4-.6h.1c.1-.1.2-.2.2-.4l.1-.1h.1c0-.1 0-.2.1-.3l-.1.1.5-.8h.2c.1-.1.1-.2.1-.4.3-.3.6-.7.9-1.2h.1c.1-.2.3-.3.5-.4.2-.1.3-.3.4-.5-.1.1-.3.2-.4.2.2-.2.3-.4.4-.6.2 0 .3-.1.3-.3v-.1h.1c.1-.1.2-.2.2-.3h-.2c1-1.4 1.6-2.7 1.9-3.9l-.5.3c-.8.5-1.8.6-2.9.5-.4-.2-.6-.4-.6-.5.1-1 .7-1.3 1.6-1 1.1.1 2-.1 2.8-.6.6-.5 1-1.1 1.2-1.9.2-.3.5-.3.9-.2s.6.4.5.7c-.6 1.4-1.4 2.8-2.5 4.3s-2 3.3-2.8 5.4h.2v-.2c1.6-1.9 2.6-3.1 3.2-3.5.5-.5 1.3-1.1 2.3-2 .1 0 .3.1.4.1 0-.1 0-.1.1-.1h-.1v-.3c.1-.1.3-.3.7-.6.4-.4.9-.7 1.4-1.2.5-.4 1.1-1 1.9-1.6.1-.1.2-.2.4-.2s.3-.1.5-.1c.3 0 .5.2.8.6.2.2.3.3.3.6v.3c-.2.3-.4.6-.6 1-.2.3-.4.6-.6 1-.2.4-.3.7-.4.8.2.3.1.6-.3 1s-.7.4-.9.2c-.6-.4-.5-.8 0-1.4.3-.7.5-1.1.5-1.2h-.3c-.5.1-1.2.5-2 1.2-.8.6-1.4 1.1-1.7 1.4-.6.5-1.4 1.2-2.3 2.1l-2.7 2.7c-.4.5-.8.9-1.2 1.3-.4.4-.8.8-1.1 1.2-.5.5-.9 1-1.3 1.5s-.7.9-.9 1.3c-.5 0-.8 0-1.1-.1zm4.5-5.4h.2v-.2h-.1c-.1 0-.1.1-.1.2zm1.5-4.4h-.2c-.1.1-.2.2-.2.4h.3c0-.1.1-.3.1-.4zm.8-1.4h-.2c0 .2.1.3.3.3-.1-.1-.1-.2-.1-.3zm4 .2h.2v-.1h-.4c-.1-.1 0 0 .2.1zM373.4 76.5c-.1-2.1 1-4.5 3.3-7.2 2.3-2.8 4.6-5.1 6.9-7.1 0 0-.1.2-.1.4h.3c0-.2.1-.3.1-.3h-.3l.7-.5c.7-1.2 1.5-2.5 2.5-3.8 1-1.4 1.8-3 2.4-4.8h-.3v.3c-.1.1-.7.6-1.7 1.7-1.1 1-2.2 2.2-3.5 3.4-1.3 1.2-2.4 2.3-3.6 3.2-1.1 1-1.8 1.4-2 1.4 0 0-.3.1-.7.2s-.8 0-1.1-.6c-.2-.2-.2-.6-.2-.9 1.1-1.9 2.6-4.1 4.4-6.6s3.2-4.5 4.1-5.9c.1-.2 0-.3-.2-.2-.1.1-.1 0-.1-.2.2-.4.4-.7.6-.9.2-.3.4-.5.6-.8.2-.3.4-.5.6-.8.2-.2.7-.2 1.2 0 .6.2.6.7.1 1.4-.7.9-1.4 2-2.3 3.1-.9 1.1-1.7 2.2-2.5 3.2l-.1.4c-.5.7-1.3 1.7-2.3 3-1 1.4-1.6 2.3-1.7 3 .6 0 1.4-.4 2.6-1.3 1.2-.9 2.4-1.9 3.6-3 1.2-1.1 2.4-2.3 3.6-3.4l2.6-2.6c1.3-1.3 2-2.2 2.2-2.6.2-.4.6-.5 1.3-.3.6.3.6.9.2 1.6-.4.7-1.1 1.6-2 2.7-.9 1-1.9 2.3-3 3.7-1.1 1.4-2 3-2.7 4.7.1-.1.3-.2.5-.2.2-.1.3-.1.5-.2.1 0 .3-.1.6-.1.3-.1.5-.1.7-.1.1 0 .2 0 .3-.1.1-.1.2-.1.4-.1h.3c.2 0 .3 0 .5-.2 0 .1-.1.2-.2.2s-.2 0-.2.1 0 .1.1.1c.4-.1.6-.2.7-.4.2.2.5.2.8 0-.3.2-.6.3-.7.1 0 .2 0 .3.1.3.1-.1.3-.1.4-.1.1 0 .2-.1.4-.2-.1-.3-.1-.2-.1-.2s.1 0 .1-.1.1-.1.2-.1h.1c.2-.1.3-.2.3 0l.1.1.3-.2c0 .3-.2.4-.4.5s-.4.1-.6.2c-.9.2-1.9.5-2.9.8-1 .3-1.9.8-2.7 1.4-.3.5-.6.9-1 1.4-.4.5-.5.8-.6 1l-.2.2c-.4.9-.8 1.8-1.1 2.7-.3.9-.5 1.5-.4 1.9h-.3v-.1h-.4v.3c0 .1 0 .3-.1.4l.1.1c-.7.7-1.4 1.6-2 2.7-.6 1.1-1.3 2.1-2.1 3-.9 1-1.7 1.6-2.4 1.9-.4.2-1 .4-1.6.5-.6-.2-.9-.5-1-1.1zm1.2 0c1.7-.6 3.7-2.9 6-6.8 0 0-.1-.1 0-.1 0-.1.1-.1.1-.1.1-.2.2-.3.2-.3s.1-.1.1 0v-.3c.1-.1.6-.7 1.3-2 .7-1.2 1.1-1.9 1.1-1.9-.2 0-.5-.1-.8-.2v-.1h.3c0-.1 0-.1.1-.1-.4-.1-.9.2-1.4.8l.2.2c-.5.2-.7.4-.8.6-.1.2-.5.4-1.1.7v.1c.2 0 .4.1.4.1v.2c-.6-.1-.9-.1-.8 0 .1 0 .2.1.3.3-.4.2-.9.7-1.6 1.5-.7.9-1.4 1.8-2.1 2.8-.7 1-1.2 2-1.5 2.9-.3.8-.3 1.4 0 1.7zm8.2-17.8h-.2c0 .1 0 .2.1.2s.3 0 .4.1c0 0-.1 0-.2-.1s-.1-.1-.1-.2zm.5 4.4s.1-.1.2-.1l-.1-.1s0 .1-.1.1v.1zM387 59c.2.1.2.1.2-.1s-.1-.2-.2-.3v.4zm2.6-6.2h-.2v.3h.2v-.3z" fill="#CDD500"/></svg>